<?xml version="1.0" encoding="UTF-8" standalone="no"?>
<!-- Created with Inkscape (http://www.inkscape.org/) -->

<svg
   width="210mm"
   height="210mm"
   viewBox="0 0 210 210"
   version="1.1"
   id="svg1"
   inkscape:version="1.4 (e7c3feb100, 2024-10-09)"
   sodipodi:docname="icon.svg"
   xmlns:inkscape="http://www.inkscape.org/namespaces/inkscape"
   xmlns:sodipodi="http://sodipodi.sourceforge.net/DTD/sodipodi-0.dtd"
   xmlns="http://www.w3.org/2000/svg"
   xmlns:svg="http://www.w3.org/2000/svg">
  <sodipodi:namedview
     id="namedview1"
     pagecolor="#ffffff"
     bordercolor="#000000"
     borderopacity="0.25"
     inkscape:showpageshadow="2"
     inkscape:pageopacity="0.0"
     inkscape:pagecheckerboard="0"
     inkscape:deskcolor="#d1d1d1"
     inkscape:document-units="mm"
     inkscape:zoom="0.71179153"
     inkscape:cx="396.18342"
     inkscape:cy="561.25984"
     inkscape:window-width="1920"
     inkscape:window-height="1008"
     inkscape:window-x="0"
     inkscape:window-y="0"
     inkscape:window-maximized="1"
     inkscape:current-layer="layer1" />
  <defs
     id="defs1">
    <linearGradient
       id="swatch1"
       inkscape:swatch="solid">
      <stop
         style="stop-color:#000000;stop-opacity:1;"
         offset="0"
         id="stop1" />
    </linearGradient>
  </defs>
  <g
     inkscape:label="Camada 1"
     inkscape:groupmode="layer"
     id="layer1">
    <path
       style="fill-opacity:1;stroke:#000000;stroke-width:0.264583;stroke-opacity:1;fill:#877de2"
       id="path26"
       d="m 10.250284,40.417265 c 0.444194,-0.636235 0.912145,-1.255847 1.371892,-1.881976 0.7658,-1.013351 1.543161,-2.019699 2.323991,-3.022237 0.889346,-1.106371 1.779607,-2.212046 2.6588,-3.326514 0.936105,-1.182682 1.921585,-2.325065 2.888685,-3.482303 0.908243,-1.090771 1.863082,-2.140847 2.797233,-3.208871 1.017974,-1.20387 2.2026,-2.245336 3.408048,-3.254784 1.231573,-0.991861 2.530187,-1.890974 3.848903,-2.761438 1.409226,-0.896021 2.895504,-1.660787 4.404701,-2.372172 1.2485,-0.67779 2.564508,-1.165471 3.930332,-1.542476 1.085535,-0.29439 2.200447,-0.44512 3.316502,-0.56381 0.910754,-0.06189 1.827871,-0.199778 2.739647,-0.111798 0.811739,0.04595 1.617601,0.199619 2.399977,0.420747 0.835234,0.235748 1.559832,0.678872 2.304341,1.107981 0.410839,0.301115 0.889497,0.471245 1.329809,0.722213 0.151011,0.08607 0.597471,0.35552 0.446841,0.268783 -11.935161,-6.872682 -16.172743,-9.4497236 -11.723555,-6.748683 0.920467,0.485612 1.753592,1.109708 2.537074,1.789736 1.637136,1.504682 3.333009,2.941975 5.031383,4.376453 1.842865,1.392395 3.421086,3.026183 4.830262,4.846948 1.539166,2.120852 2.869115,4.379849 4.087368,6.696751 1.160298,2.2644 2.123136,4.623702 3.00527,7.008138 0.890669,2.475574 1.662578,4.988753 2.31073,7.538011 0.677865,2.646891 1.127628,5.345192 1.511573,8.048199 0.321545,2.316633 0.540911,4.645842 0.780928,6.971932 0.225846,2.222928 0.338611,4.454734 0.415338,6.687116 0.04787,1.835632 0.09184,3.671575 0.1027,5.507863 0.02196,1.793639 0.06899,3.587247 0.07442,5.381016 0.0069,1.679644 -0.0071,3.359116 -0.03162,5.038553 0.0026,1.330809 -0.01619,2.661515 -0.01736,3.992327 -0.0011,1.229448 0.0044,2.458887 -0.0057,3.688308 0.0097,1.145201 -0.0098,2.290331 -0.0089,3.435498 0.0056,1.096296 -0.0041,2.192568 1.48e-4,3.288871 0.03862,1.198454 -0.03425,2.394852 -0.09438,3.591163 -0.07557,1.196068 -0.138092,2.39254 -0.183986,3.59007 -0.03154,1.13989 -0.06124,2.27989 -0.04632,3.42022 7.93e-4,1.35324 0.0019,2.70667 -0.01003,4.0599 -0.0069,1.21514 -0.02098,2.43019 -0.03028,3.64532 -0.01183,1.11841 -0.02241,2.2364 0.04338,3.35326 0.09708,1.24594 0.163205,2.4946 0.207497,3.74351 0.06479,1.23234 0.176241,2.46317 0.292171,3.69187 0.2144,1.68259 0.338066,3.37434 0.532479,5.05918 0.229886,1.99815 0.479774,3.99398 0.676357,5.99577 0.195223,2.07183 0.494268,4.13173 0.773957,6.19328 0.27669,2.22184 0.50402,4.44983 0.744566,6.67592 0.236318,2.19318 0.534181,4.3794 0.919996,6.55126 0.424664,2.23014 0.922258,4.44547 1.39364,6.666 0.416872,1.95938 0.869601,3.91101 1.326907,5.8613 0.401878,1.78519 0.861094,3.55664 1.28625,5.33624 0.331256,1.46677 0.701106,2.92451 1.082895,4.37883 0.388612,1.61435 0.92067,3.18582 1.528085,4.72939 0.798743,1.89818 1.813594,3.69482 2.909819,5.4346 1.107154,1.75544 2.304814,3.43939 3.7265,4.95302 0.277283,0.25156 0.544719,0.51443 0.831852,0.7547 0.554207,0.46374 1.311818,1.01735 1.936232,1.3793 5.321104,3.08441 9.94138,6.14783 15.305648,8.5851 1.102058,0.4953 2.2602,0.90293 3.47895,0.95652 0.63454,0.0279 1.33741,-0.0483 1.96678,-0.0983 2.62863,-0.29664 5.06493,-1.2799 7.41895,-2.43348 2.88728,-1.5994 5.83474,-3.13678 8.54227,-5.03624 0.61659,-0.43256 1.20807,-0.89988 1.8121,-1.34982 4.26456,-3.43088 8.24267,-7.19525 12.06581,-11.10639 4.33902,-4.61587 8.18529,-9.65435 11.91006,-14.76873 3.91776,-5.3051 7.3656,-10.91832 10.53344,-16.69554 2.24597,-4.19803 4.35738,-8.47208 6.09624,-12.9078 1.22308,-3.12002 1.36942,-3.73584 2.40906,-6.93967 2.25304,-7.17465 3.63519,-14.56926 4.84402,-21.97784 0.74886,-4.52141 1.07728,-9.10018 1.02204,-13.681323 -0.0307,-2.545252 -0.14677,-4.202266 -0.284,-6.736763 -0.28735,-4.129632 -0.69332,-8.259603 -1.47229,-12.32908 -0.46711,-2.440279 -0.64998,-2.983585 -1.26833,-5.348536 -0.83475,-2.848184 -1.83946,-5.656649 -3.20366,-8.298014 -0.75022,-1.452565 -1.1155,-1.986801 -1.96612,-3.364693 -1.68253,-2.691135 -3.82773,-5.00031 -6.19164,-7.095304 -4.89002,-3.862613 -1.58204,-1.321403 -14.25833,-8.482132 -0.3285,-0.185568 -0.7021,-0.279842 -1.06464,-0.38431 -1.09045,-0.314219 -2.23008,-0.437758 -3.35459,-0.540824 -2.08047,-0.165071 -4.18096,-0.139713 -6.24723,0.157321 -2.32762,0.457251 -4.48401,1.488795 -6.58449,2.555129 -1.5473,0.794777 -3.02255,1.729933 -4.27744,2.945149 -0.83875,0.812228 -1.18235,1.299088 -1.91734,2.212927 -1.77282,2.471917 -3.02236,5.264515 -3.97319,8.141113 -0.731,2.579854 -0.48545,4.41879 0.51284,6.854706 1.08967,2.291847 2.87457,4.080851 4.81539,5.663445 4.97282,3.471442 10.15698,6.78433 15.78907,9.05255 1.29821,0.522832 2.63139,0.944959 3.96471,1.366379 2.93098,0.839193 5.97322,1.175827 8.99668,1.487776 3.06971,0.312283 6.15051,0.433854 9.23403,0.469892 2.0153,-0.02225 4.04684,-0.06024 6.00189,-0.608192 1.53986,-0.431586 2.11809,-0.747321 3.62078,-1.398479 4.97742,-2.418847 9.74569,-5.243168 14.47214,-8.114302 5.63965,-3.45856 10.91878,-7.45625 16.16738,-11.471693 3.28554,-2.4159 6.38929,-5.061101 9.53674,-7.650181 0,0 -11.91835,-7.414485 -11.91835,-7.414485 v 0 c -2.92717,2.717228 -5.88553,5.401469 -9.00681,7.897032 -5.11266,4.123311 -10.39684,8.03701 -16.10573,11.30804 -4.77239,2.806824 -9.58345,5.614416 -14.74927,7.645048 -1.59244,0.527786 -2.06594,0.749258 -3.66299,1.047985 -1.93624,0.36217 -3.92228,0.345319 -5.88285,0.359032 -3.04794,-0.05196 -6.09285,-0.225991 -9.12383,-0.55921 -3.00448,-0.358227 -6.01546,-0.788122 -8.88824,-1.780011 -1.31055,-0.453871 -2.61141,-0.911026 -3.86539,-1.509199 -0.40796,-0.194606 -1.59501,-0.85017 -1.20567,-0.620564 0.85344,0.503295 15.85712,9.218967 9.98519,5.807853 -1.95793,-1.353664 -3.77542,-2.932049 -5.02205,-4.990251 -1.04907,-1.933226 -1.56807,-3.747037 -1.05899,-5.950754 0.7354,-2.754892 1.84027,-5.418678 3.6146,-7.678232 0.76972,-0.885757 0.98054,-1.188765 1.8486,-1.95751 1.22321,-1.083254 2.64292,-1.913204 4.09465,-2.647627 2.0427,-0.96071 4.15577,-1.830213 6.42333,-2.059212 1.99367,-0.145135 4.00089,-0.206693 5.9856,0.09082 1.07757,0.199618 2.11376,0.409824 3.12321,0.855588 0.32475,0.143405 1.25479,0.663591 0.94934,0.482698 -13.22368,-7.831222 -14.8333,-8.888872 -10.29612,-5.965272 2.50723,1.981312 4.85447,4.148368 6.64606,6.822628 2.40957,3.568025 4.37161,7.324273 5.68434,11.4426 0.69552,2.296276 0.93033,2.914636 1.45233,5.29238 0.88632,4.037225 1.35759,8.154721 1.70907,12.267997 0.17069,2.554419 0.3046,4.112678 0.35563,6.678041 0.0902,4.533722 -0.2332,9.063638 -0.83163,13.556524 -1.06703,7.36664 -2.46071,14.69254 -4.71796,21.79937 -0.38393,1.15594 -0.74621,2.3193 -1.15179,3.46783 -1.96683,5.56974 -4.45355,10.94358 -7.33396,16.09825 -3.2323,5.67459 -6.69332,11.21654 -10.51179,16.51854 -3.72145,5.04666 -7.60893,9.98524 -11.9687,14.5022 -3.83543,3.83786 -7.81603,7.54927 -12.22366,10.73086 -3.32168,2.27006 -6.7669,4.36713 -10.463235,5.97864 -2.350384,0.94362 -4.781997,1.76551 -7.344225,1.78848 -1.891532,-0.0786 -3.346688,-0.52309 -5.032234,-1.38462 -4.465495,-2.19189 -10.326574,-5.96505 9.492998,5.62566 0.335868,0.19642 -0.697658,-0.34598 -1.03411,-0.5414 -0.323118,-0.18768 -0.635609,-0.39372 -0.94261,-0.60673 -0.289825,-0.2011 -0.564484,-0.42321 -0.846725,-0.63481 -1.528117,-1.35528 -2.774865,-2.93729 -3.86416,-4.66555 -1.115081,-1.64247 -2.133309,-3.35376 -2.958362,-5.1621 -0.639628,-1.45547 -1.128893,-2.96108 -1.530374,-4.49963 -0.366191,-1.46407 -0.775261,-2.91759 -1.151723,-4.37919 -0.414317,-1.79347 -0.938361,-3.55886 -1.342475,-5.35472 -0.440177,-1.96334 -0.95921,-3.90853 -1.372986,-5.87817 -0.526111,-2.19752 -1.006563,-4.40699 -1.454269,-6.62199 -0.383556,-2.14443 -0.691783,-4.29869 -0.940221,-6.46314 -0.27636,-2.22812 -0.497761,-4.46335 -0.740365,-6.69547 -0.252495,-2.04352 -0.507894,-4.0866 -0.750194,-6.13134 -0.196403,-2.00185 -0.435041,-3.9989 -0.639091,-5.99982 -0.180416,-1.65625 -0.304022,-3.315 -0.405167,-4.97741 -0.128894,-1.19939 -0.173215,-2.40633 -0.32394,-3.60384 -0.04866,-1.25673 -0.105611,-2.51266 -0.176609,-3.76833 -0.07032,-1.08859 -0.08842,-2.17503 -0.07564,-3.26627 -0.0068,-1.2225 -0.01757,-2.44498 -0.01852,-3.6675 -0.0044,-1.34715 0.0046,-2.69458 0.02617,-4.04153 0.03532,-1.12541 0.03292,-2.25148 0.06361,-3.37704 0.02484,-1.19283 0.05681,-2.38583 0.118745,-3.57737 0.07904,-1.21287 0.208997,-2.42398 0.182666,-3.64107 0.0042,-1.09635 -0.0056,-2.192658 -1.91e-4,-3.288996 7.94e-4,-1.148477 -0.01905,-2.296912 -0.01,-3.445423 -0.01069,-1.23218 -0.0061,-2.464385 -0.0089,-3.696594 -0.0033,-1.33912 -0.02479,-2.678076 -0.02727,-4.01719 -0.03137,-1.696897 -0.05359,-3.393853 -0.06226,-5.091036 -0.0123,-1.791057 0.01418,-3.582249 -0.02003,-5.373282 -0.05251,-1.863127 -0.08722,-3.726831 -0.185721,-5.588355 -0.106551,-2.260997 -0.212789,-4.522348 -0.410308,-6.777577 -0.222292,-2.363105 -0.496271,-4.723215 -0.817891,-7.074657 -0.442161,-2.732857 -0.855702,-5.474387 -1.472244,-8.17464 -0.621941,-2.593089 -1.338522,-5.159269 -2.24589,-7.668906 -0.843092,-2.431304 -1.765442,-4.84324 -2.886233,-7.161395 -1.200272,-2.3799 -2.557952,-4.666482 -4.016955,-6.897446 C 62.975957,25.427205 61.54625,23.589315 59.604578,22.211613 57.963006,20.857952 56.3252,19.49109 54.804174,18.001616 54.058645,17.276505 53.34741,16.516638 52.460765,15.953606 47.333442,13.05584 42.338519,9.9183133 37.129227,7.1736693 36.310686,6.7861973 35.441802,6.5124856 34.546624,6.3680157 33.697796,6.2485118 32.851476,6.1556137 31.991495,6.1989062 c -0.94816,0.071459 -1.897139,0.1425215 -2.836375,0.2971419 -1.149845,0.189508 -2.293628,0.4238744 -3.396198,0.8094609 -1.385552,0.483212 -2.725379,1.067525 -4.017439,1.7655408 -1.517647,0.7994258 -3.032231,1.6100712 -4.477965,2.5353112 -1.361806,0.900311 -2.702049,1.828959 -3.920017,2.922058 -1.260458,1.080654 -2.532668,2.157993 -3.6472144,3.392974 -0.8950803,1.097148 -1.8182793,2.169668 -2.7396185,3.244663 -0.9869469,1.15689 -1.939916,2.340516 -2.9065384,3.514569 -0.9016465,1.105409 -1.8102788,2.204923 -2.6941652,3.324605 -0.78908273,1.000614 -1.60238685,1.981118 -2.3829782,2.988519 -0.5254018,0.63187 -1.0616488,1.253707 -1.5870006,1.885455 z" />
    <path
       style="fill-opacity:1;stroke:#000000;stroke-width:0.264583;stroke-opacity:1;fill:#877de2"
       id="path27"
       d="m 149.72815,38.131025 c -0.0184,-1.07019 0.37615,-2.054228 0.84415,-2.994467 0.61558,-1.126191 1.35973,-2.174148 2.14634,-3.185761 0.92243,-1.115099 1.92779,-2.151224 3.05306,-3.061062 0.89543,-0.765186 1.87782,-1.419701 2.84138,-2.094871 0.15144,-0.108331 0.30289,-0.216664 0.45433,-0.324995 0,0 -12.42495,-7.90273 -12.42495,-7.90273 v 0 c -0.15096,0.106745 -0.30192,0.213491 -0.45288,0.320236 -0.98416,0.700471 -1.94891,1.427991 -2.83393,2.252798 -1.15461,1.022605 -2.24857,2.110016 -3.21128,3.318393 -0.84772,1.089185 -1.70385,2.184618 -2.34991,3.40966 -0.53201,1.081162 -0.97556,2.202291 -1.25183,3.378055 z" />
    <path
       style="fill-opacity:1;stroke:#000000;stroke-width:0.264583;stroke-opacity:1;fill:#877de2"
       id="path28"
       d="m 127.22657,36.441446 c -0.084,-0.06269 -0.15921,-0.139137 -0.25186,-0.188053 -0.10501,-0.05544 -0.23045,-0.06502 -0.33481,-0.121676 -0.49886,-0.270825 -0.85588,-0.769753 -1.18093,-1.216832 -0.57936,-0.804963 -0.7837,-1.773407 -0.97456,-2.726809 -0.24826,-1.483077 -0.32214,-2.986048 -0.37917,-4.486193 -0.0566,-1.440172 -0.18563,-2.876277 -0.18607,-4.318101 0,0 -13.11176,-6.669812 -13.11176,-6.669812 v 0 c 0.0184,1.476024 0.18366,2.939739 0.28458,4.411656 0.0434,1.525974 0.0526,3.055384 0.18674,4.576767 0.1096,1.090693 0.28439,2.18691 0.67412,3.216496 0.27995,0.576794 0.60786,1.10367 0.94858,1.64533 0.0712,0.113133 0.11341,0.248158 0.20745,0.343128 0.0595,0.06008 0.15507,0.0675 0.2326,0.101253 z" />
    <path
       style="fill-opacity:1;stroke:#000000;stroke-width:0.264583;stroke-opacity:1;fill:#877de2"
       id="path29"
       d="m 99.792723,48.662309 c -0.800148,-0.04485 -1.600989,-0.07594 -2.401703,-0.112742 -0.90601,0.0013 -1.836663,0.03956 -2.73065,0.203962 -1.238385,0.302427 -2.417422,0.794806 -3.598945,1.264002 -0.26235,0.105278 -0.5247,0.210553 -0.787048,0.315828 0,0 12.103153,8.134633 12.103153,8.134633 v 0 c 0.26385,-0.09615 0.52769,-0.192291 0.79154,-0.288438 1.15275,-0.389144 2.3268,-0.784606 3.54796,-0.874961 0.85805,-0.03387 1.71498,-0.108823 2.57215,-0.006 0.81868,0.05635 1.63871,0.121883 2.44191,0.299003 z" />
    <path
       style="fill-opacity:1;stroke:#000000;stroke-width:0.264583;stroke-opacity:1;fill:#877de2"
       id="path30"
       d="m 99.14411,73.729161 c -0.871413,0.648176 -1.659761,1.39618 -2.455124,2.133132 -1.375246,1.311894 -2.656618,2.716654 -3.877848,4.171651 -1.050805,1.29051 -0.530656,0.651833 -1.560446,1.916043 0,0 12.365808,7.39385 12.365808,7.39385 v 0 c 0.99021,-1.251362 0.48414,-0.62834 1.51878,-1.868593 1.26555,-1.380384 2.63661,-2.643841 4.04283,-3.879593 0.75074,-0.672235 1.51755,-1.350836 2.45816,-1.746076 z" />
    <path
       style="fill-opacity:1;fill:#877de2"
       id="path31"
       d="m 117.16114,81.820574 c -0.0486,1.160783 -0.0934,2.321597 -0.12166,3.483073 -0.11577,1.784689 0.21618,3.510471 0.72867,5.20895 0.2723,0.92524 0.74076,1.753878 1.22977,2.575835 0,0 13.3385,5.821797 13.3385,5.821797 v 0 c -0.54155,-0.6955 -1.08732,-1.385951 -1.40432,-2.221167 -0.57066,-1.5128 -0.96511,-3.058641 -0.87188,-4.690382 0.0537,-1.07523 0.0839,-2.161236 0.29009,-3.220419 z" />
    <circle
       id="path32"
       style="fill:#877de2;stroke:#000000;stroke-width:0.264583;fill-opacity:1"
       cx="139.02127"
       cy="79.175224"
       r="0.18567146" />
  </g>
</svg>
